Jump_normalized_Motion_pl10
version=1
nRows=16
nColumns=43
inDegrees=yes
endheader
time		pelvis_tilt		pelvis_list		pelvis_rotation		pelvis_tx		pelvis_ty		pelvis_tz		hip_flexion_r		hip_adduction_r		hip_rotation_r		knee_angle_r		ankle_angle_r		subtalar_angle_r		mtp_angle_r		hip_flexion_l		hip_adduction_l		hip_rotation_l		knee_angle_l		ankle_angle_l		subtalar_angle_l		mtp_angle_l		lumbar_extension		lumbar_bending		lumbar_rotation		neck_flexion		neck_lateral_bending		neck_rotation		arm_flex_r		arm_add_r		arm_rot_r		elbow_flex_r		pro_sup_r		wrist_flex_r		wrist_dev_r		hand_finger_flex_r		arm_flex_l		arm_add_l		arm_rot_l		elbow_flex_l		pro_sup_l		wrist_flex_l		wrist_dev_l		hand_finger_flex_l		
0.120833		1.360972		-17.937202		81.374937		0.063917		1.757463		1.667739		65.269984		1.188515		4.968905		-143.775931		20.970596		8.048057		28.708185		67.830328		-8.562974		9.332295		-143.510041		-1.186844		22.374863		43.499018		-33.504288		-1.712355		7.613132		28.828056		1.530319		-1.510043		86.782191		-22.630691		11.066853		75.955099		101.328994		5.774650		2.047424		-11.624078		88.097705		-22.190026		20.990344		51.277365		114.573329		-14.571396		2.652219		8.652775		
0.122626		1.250316		-18.040215		81.301669		0.063774		1.757675		1.664246		64.923694		1.155427		5.128043		-143.575076		20.769427		7.972070		28.988450		67.796311		-8.475129		9.139252		-143.209532		-2.309269		22.168427		43.068385		-33.185168		-1.778076		7.571349		28.510890		1.579324		-1.512411		87.045522		-22.462585		11.219668		75.745638		101.458433		5.861612		2.001084		-11.600946		88.194250		-22.200629		21.054326		51.269741		114.264011		-14.497378		2.613371		8.211100		
0.124419		0.959301		-18.086408		81.146166		0.063646		1.757890		1.660685		64.571486		1.017299		5.531803		-143.385193		20.336491		7.964784		30.914473		67.677288		-8.304534		8.620766		-142.926813		-3.126245		21.509023		40.772549		-32.889137		-2.008670		7.450584		28.201707		1.527978		-1.452462		87.235439		-22.170944		11.201404		75.500630		102.067220		6.122156		1.747073		-11.591890		88.419781		-22.462148		21.745483		51.263177		112.589032		-13.904591		2.699228		5.437396		
0.126212		0.848500		-18.181563		81.069562		0.063541		1.758068		1.657098		64.206983		0.972622		5.711389		-143.172877		20.082535		7.912834		31.546331		67.644879		-8.234226		8.428656		-142.634121		-4.155639		21.289092		39.845278		-32.566844		-2.084438		7.404893		27.881043		1.646224		-1.483188		87.467775		-22.002293		11.351341		75.280084		102.287701		6.259244		1.734756		-11.575543		88.500282		-22.555003		21.951332		51.301946		112.065132		-13.725990		2.710607		4.482898		
0.128005		0.817880		-18.294143		81.034699		0.063453		1.758242		1.653502		63.837336		0.970253		5.784631		-142.951643		19.902024		7.836690		31.562595		67.656731		-8.196253		8.381328		-142.325655		-5.338574		21.243464		39.540027		-32.239822		-2.084201		7.394468		27.554626		1.788079		-1.531321		87.713234		-21.881601		11.565704		75.073255		102.328794		6.328473		1.827040		-11.558034		88.527204		-22.555975		21.936579		51.327296		112.083276		-13.750828		2.706839		4.390795		
0.129798		0.771529		-18.391325		81.009868		0.063376		1.758454		1.649913		63.469601		0.961590		5.860609		-142.735074		19.690110		7.753424		31.590400		67.675613		-8.118196		8.304399		-141.989147		-6.653488		21.105328		39.148708		-31.932831		-2.079330		7.382242		27.227571		1.782910		-1.513045		87.940329		-21.732931		11.738834		74.871517		102.386912		6.375513		1.890734		-11.546475		88.594711		-22.528732		21.952273		51.263035		112.077157		-13.788350		2.755448		4.274955		
0.131591		0.724006		-18.473105		80.988300		0.063295		1.758662		1.646240		63.070613		0.931304		5.946069		-142.508774		19.473722		7.677379		31.630628		67.680949		-8.043762		8.207936		-141.659198		-7.922643		20.880398		38.714028		-31.633708		-2.081785		7.359739		26.893943		1.831915		-1.525074		88.159163		-21.612283		11.947793		74.664101		102.487920		6.437042		1.959343		-11.522793		88.646763		-22.517535		22.001761		51.209945		112.053360		-13.841570		2.799436		4.148510		
0.133384		0.586083		-18.497978		80.921764		0.063177		1.758964		1.642504		62.637110		0.845695		6.158920		-142.286387		19.194113		7.618872		32.153672		67.607481		-7.925848		7.908057		-141.333383		-8.978992		20.329828		36.784102		-31.390717		-2.175496		7.310712		26.614556		1.833179		-1.508738		88.355395		-21.456398		12.075811		74.456358		102.816663		6.540576		1.925522		-11.418370		88.751150		-22.563994		22.245467		51.149077		111.705124		-13.828386		2.858574		3.515406		
0.135177		0.377129		-18.475937		80.821171		0.063032		1.759345		1.638717		62.175998		0.716003		6.471558		-142.067033		18.864451		7.578261		33.070634		67.470287		-7.772686		7.448806		-141.008693		-9.864561		19.533332		33.637261		-31.194633		-2.341684		7.240251		26.376122		1.798217		-1.472054		88.533325		-21.272812		12.138749		74.247489		103.327316		6.678345		1.813832		-11.248089		88.900632		-22.653672		22.644304		51.076834		111.099470		-13.756502		2.930200		2.471490		
0.136970		0.367479		-18.541736		80.835951		0.063002		1.759541		1.634958		61.749702		0.677711		6.509871		-141.826976		18.666362		7.544972		33.063537		67.475354		-7.710466		7.422059		-140.663236		-11.135295		19.447063		33.373958		-30.908947		-2.321053		7.210998		25.994201		1.945711		-1.552260		88.746610		-21.200810		12.410648		74.024620		103.410707		6.751405		1.959331		-11.220498		88.951814		-22.615464		22.675386		50.987093		111.170226		-13.791143		2.968028		2.423557		
0.138763		0.351206		-18.561354		80.872698		0.062898		1.759874		1.631138		61.262783		0.595626		6.549681		-141.572668		18.466336		7.481713		33.099948		67.458801		-7.608188		7.331460		-140.287746		-12.578043		19.052839		33.000466		-30.698951		-2.288671		7.187327		25.786616		1.961768		-1.573084		88.943950		-21.122793		12.612518		73.843456		103.545896		6.802533		2.040501		-11.191865		89.041762		-22.551978		22.763218		50.848996		111.284947		-13.859715		2.999854		2.317226		
0.140556		0.321176		-18.554119		80.911020		0.062768		1.760245		1.627274		60.748168		0.496121		6.611892		-141.317289		18.255188		7.420747		33.152170		67.419211		-7.488173		7.206652		-139.895789		-14.070258		18.587160		32.601655		-30.517677		-2.267546		7.161174		25.591202		1.950955		-1.583482		89.136322		-21.051223		12.802015		73.660924		103.713136		6.863250		2.109953		-11.157086		89.139889		-22.473337		22.869291		50.691790		111.399579		-13.931029		3.042475		2.196107		
0.142348		0.266699		-18.530271		80.932301		0.062649		1.760568		1.623369		60.228576		0.398782		6.722595		-141.072859		18.021078		7.392927		33.198904		67.348536		-7.366128		7.065381		-139.495247		-15.511736		18.250413		32.249531		-30.329573		-2.282484		7.124275		25.259817		2.003246		-1.626205		89.332542		-20.999641		13.029465		73.436332		103.903306		6.965840		2.213482		-11.109589		89.219973		-22.384590		22.962908		50.537258		111.472889		-13.976714		3.114755		2.096679		
0.144141		0.219719		-18.510910		80.957264		0.062550		1.760849		1.619337		59.698219		0.293365		6.819738		-140.815094		17.778443		7.390238		33.225302		67.258764		-7.273240		6.928332		-139.076966		-16.882416		18.024463		31.956244		-30.123567		-2.296957		7.088008		24.806384		2.092281		-1.686233		89.470162		-21.010591		13.286065		73.276162		104.081396		7.097662		2.325237		-11.058650		89.245252		-22.336628		23.070782		50.462900		111.540875		-14.008429		3.170313		2.023501		
0.145934		0.166770		-18.470619		80.990370		0.062417		1.761179		1.615338		59.160693		0.175417		6.925499		-140.558545		17.519566		7.394108		33.258107		67.185204		-7.165721		6.791462		-138.629649		-18.417181		17.761190		31.632130		-29.953606		-2.311855		7.044391		24.458309		2.151667		-1.733310		89.624640		-20.996827		13.515912		73.094537		104.282639		7.224790		2.439361		-11.016308		89.306325		-22.264643		23.196653		50.332641		111.626699		-14.049618		3.245317		1.934789		
0.147727		0.106174		-18.401802		81.033639		0.062246		1.761582		1.611372		58.607191		0.043490		7.040894		-140.301866		17.249525		7.402243		33.311953		67.117805		-7.037592		6.644364		-138.150655		-20.110200		17.411247		31.255893		-29.832699		-2.329154		6.991955		24.243048		2.179355		-1.767388		89.795868		-20.954648		13.704234		72.896936		104.525026		7.350723		2.550213		-10.985252		89.410764		-22.169176		23.349332		50.145722		111.739367		-14.107213		3.337402		1.814953		
